<?xml version="1.0" standalone="no"?>
<svg width="100%" height="100%" id="svg" viewBox="0 0 1440 600" xmlns="http://www.w3.org/2000/svg" class="transition duration-300 ease-in-out delay-150"><path d="M 0,600 C 0,600 0,150 0,150 C 94.38277511961724,155.89473684210526 188.76555023923447,161.78947368421055 296,146 C 403.23444976076553,130.21052631578945 523.3205741626795,92.73684210526314 610,106 C 696.6794258373205,119.26315789473686 749.9521531100478,183.26315789473685 846,184 C 942.0478468899522,184.73684210526315 1080.8708133971293,122.21052631578947 1187,106 C 1293.1291866028707,89.78947368421053 1366.5645933014353,119.89473684210526 1440,150 C 1440,150 1440,600 1440,600 Z" stroke="none" stroke-width="0" fill="#0da49b" fill-opacity="0.4" class="transition-all duration-300 ease-in-out delay-150 path-0"></path><path d="M 0,600 C 0,600 0,300 0,300 C 93.53110047846891,323.95215311004785 187.06220095693783,347.9043062200957 287,334 C 386.93779904306217,320.0956937799043 493.2822966507176,268.3349282296651 604,263 C 714.7177033492824,257.6650717703349 829.8086124401915,298.75598086124404 915,297 C 1000.1913875598085,295.24401913875596 1055.4832535885166,250.64114832535884 1138,244 C 1220.5167464114834,237.35885167464116 1330.2583732057417,268.6794258373206 1440,300 C 1440,300 1440,600 1440,600 Z" stroke="none" stroke-width="0" fill="#0da49b" fill-opacity="0.53" class="transition-all duration-300 ease-in-out delay-150 path-1"></path><path d="M 0,600 C 0,600 0,450 0,450 C 95.56937799043064,466.2870813397129 191.13875598086128,482.5741626794258 291,485 C 390.8612440191387,487.4258373205742 495.01435406698556,475.9904306220095 589,475 C 682.9856459330144,474.0095693779905 766.8038277511963,483.46411483253587 871,482 C 975.1961722488037,480.53588516746413 1099.7703349282297,468.1531100478469 1198,461 C 1296.2296650717703,453.8468899521531 1368.1148325358852,451.92344497607655 1440,450 C 1440,450 1440,600 1440,600 Z" stroke="none" stroke-width="0" fill="#0da49b" fill-opacity="1" class="transition-all duration-300 ease-in-out delay-150 path-2"></path></svg>