<?xml version="1.0" standalone="no"?>
<svg xmlns:xlink="http://www.w3.org/1999/xlink" id="wave" style="transform:rotate(0deg); transition: 0.3s" viewBox="0 0 1440 400" version="1.1" xmlns="http://www.w3.org/2000/svg"><defs><linearGradient id="sw-gradient-0" x1="0" x2="0" y1="1" y2="0"><stop stop-color="rgba(201, 252, 233, 1)" offset="0%"/><stop stop-color="rgba(201, 252, 233, 1)" offset="100%"/></linearGradient></defs><path style="transform:translate(0, 0px); opacity:1" fill="url(#sw-gradient-0)" d="M0,360L40,306.7C80,253,160,147,240,140C320,133,400,227,480,240C560,253,640,187,720,166.7C800,147,880,173,960,206.7C1040,240,1120,280,1200,300C1280,320,1360,320,1440,266.7C1520,213,1600,107,1680,93.3C1760,80,1840,160,1920,186.7C2000,213,2080,187,2160,153.3C2240,120,2320,80,2400,80C2480,80,2560,120,2640,140C2720,160,2800,160,2880,173.3C2960,187,3040,213,3120,240C3200,267,3280,293,3360,293.3C3440,293,3520,267,3600,226.7C3680,187,3760,133,3840,133.3C3920,133,4000,187,4080,200C4160,213,4240,187,4320,206.7C4400,227,4480,293,4560,280C4640,267,4720,173,4800,166.7C4880,160,4960,240,5040,226.7C5120,213,5200,107,5280,106.7C5360,107,5440,213,5520,213.3C5600,213,5680,107,5720,53.3L5760,0L5760,400L5720,400C5680,400,5600,400,5520,400C5440,400,5360,400,5280,400C5200,400,5120,400,5040,400C4960,400,4880,400,4800,400C4720,400,4640,400,4560,400C4480,400,4400,400,4320,400C4240,400,4160,400,4080,400C4000,400,3920,400,3840,400C3760,400,3680,400,3600,400C3520,400,3440,400,3360,400C3280,400,3200,400,3120,400C3040,400,2960,400,2880,400C2800,400,2720,400,2640,400C2560,400,2480,400,2400,400C2320,400,2240,400,2160,400C2080,400,2000,400,1920,400C1840,400,1760,400,1680,400C1600,400,1520,400,1440,400C1360,400,1280,400,1200,400C1120,400,1040,400,960,400C880,400,800,400,720,400C640,400,560,400,480,400C400,400,320,400,240,400C160,400,80,400,40,400L0,400Z"/></svg>